# xmcd
#
# Track frame offsets: 
#        150
#        18280
#        30952
#        47005
#        62040
#        80507
#
# Disc length: 1271 seconds
#
# Revision: 0
# Processed by: cddbd v1.5.1PL0 Copyright (c) Steve Scherf et al.
# Submitted via: ExactAudioCopy v0.95b3
#
DISCID=3c04f506
DTITLE=Nisse Hellberg and Peps Persson - ABC
DYEAR=1994
DGENRE=Blues
TTITLE0=Blues ABC [Remix]
TTITLE1=Mellow Thing
TTITLE2=Kasino Blues
TTITLE3=Klippans Centrum
TTITLE4=Blondin på villovägar
TTITLE5=Thats's amore
EXTD=
EXTT0=
EXTT1=
EXTT2=
EXTT3=
EXTT4=
EXTT5=
PLAYORDER=
